<svg xmlns="http://www.w3.org/2000/svg" xmlns:xlink="http://www.w3.org/1999/xlink" width="711" height="691" fill="none" xmlns:v="https://vecta.io/nano"><style><![CDATA[.B{fill:#000}.C{fill:#f4b834}.D{fill:#fff}.E{fill:#f28b36}.F{fill:#181310}.G{fill:#f7b3be}.H{fill:#7e00aa}.I{fill:#423e3d}.J{fill:#f4cf84}]]></style><g clip-path="url(#A)"><path d="M755.68 492.66H27.03V780.15H755.68V492.66Z" fill="#a0a0a2"/><path d="M780.73 453.84H0v44.95h780.73v-44.95z" fill="#a7a7a9"/><g class="G"><path d="M490.33 397.57L358.51 295.79l-19.57 16.91s74.72 127.21 108.53 129.88 42.86-45.01 42.86-45.01z"/><path d="M342.06 317.16c-16.346-6.809-31.895-15.391-46.37-25.59-23.73-16.79-22.13-40.87-11.36-42.87s43.63 14.05 43.63 14.05-5.61-28.89.51-31.23 8.94 16.4 18.38 30.06 25 45.67 25 45.67-10.23 13.55-29.79 9.91z"/></g><g class="B"><path d="M329.6 266.21c-.453.002-.894-.149-1.25-.43-12.82-10.26-39.84-16.45-40.11-16.52-.263-.051-.513-.154-.736-.303a2.02 2.02 0 0 1-.559-.566c-.147-.224-.247-.476-.294-.739s-.042-.535.017-.796a2.01 2.01 0 0 1 .326-.726 2.02 2.02 0 0 1 .583-.541 1.99 1.99 0 0 1 .748-.271 2.01 2.01 0 0 1 .795.042c1.15.26 28.18 6.46 41.73 17.29.413.332.678.814.737 1.341a2 2 0 0 1-.427 1.469c-.187.234-.425.423-.695.552a1.99 1.99 0 0 1-.865.198zm-14.46 1.78a1.91 1.91 0 0 1-.89-.21c-.21-.1-21.65-10.76-35.16-12.48-.531-.066-1.013-.341-1.341-.763s-.475-.957-.409-1.487a2.02 2.02 0 0 1 2.25-1.75c14.19 1.81 35.55 12.42 36.45 12.87.404.201.728.533.919.942a2 2 0 0 1 .135 1.31c-.105.439-.354.83-.709 1.11a2 2 0 0 1-1.245.428v.03zm-3.33 10.9c-.353-.007-.698-.107-1-.29-10.811-6.175-22.603-10.447-34.86-12.63-.524-.088-.991-.38-1.3-.812a2 2 0 0 1-.345-1.493c.088-.524.38-.991.812-1.3a2 2 0 0 1 1.493-.345 111.1 111.1 0 0 1 36.3 13.17c.366.227.649.565.808.966a1.99 1.99 0 0 1 .07 1.257c-.113.416-.356.783-.694 1.05a2 2 0 0 1-1.184.427h-.1zm-2.89 11.12c-.42-.001-.83-.134-1.17-.38-.14-.1-14-10-27.57-11.87a2.02 2.02 0 0 1-.744-.257c-.229-.134-.429-.312-.59-.523a2 2 0 0 1-.344-.709 2.02 2.02 0 0 1 .21-1.53c.134-.229.312-.429.523-.59a2 2 0 0 1 .709-.344 2.02 2.02 0 0 1 .786-.047c14.56 2 28.76 12.16 29.36 12.59a2 2 0 0 1-1.17 3.62v.04z"/><path d="M309.81 291.34a2 2 0 0 1-2-1.89c-.92-18.24 8.61-28.22 9-28.63.18-.203.398-.366.643-.482s.511-.18.781-.19.54.036.793.133a2 2 0 0 1 .676.434c.194.189.347.416.451.666s.156.518.152.789-.061.538-.17.785-.268.47-.466.655c-.08.09-8.71 9.23-7.88 25.63a2.01 2.01 0 0 1-.113.773 2.02 2.02 0 0 1-.401.671 2 2 0 0 1-.628.466c-.238.113-.495.177-.758.19h-.08z"/></g><g class="H"><path d="M486.91 257.99l-64.59 92.4 65.06 47.15-.47-139.55z"/><path d="M481.86 394.16h-.84s-12.23-120.72 4.9-137.85 149.37-10.93 160.94 22.12 26.68 115.73 26.68 115.73H481.86z"/><path d="M581.03 230.77s45.5 26 57.82 38.3-16.69 125.09-16.69 125.09H485.68s-15.82-111.67 6.8-134.29 88.55-29.1 88.55-29.1z"/></g><g class="G"><path d="M559.47 269.07a20.26 20.26 0 0 1-20.26-20.26v-33h40.53v33a20.27 20.27 0 0 1-20.27 20.26z"/><path d="M491.54 123.01s-5.09 101.78 18.31 113.75 59.19 4.69 68.3-5.83 0-110.84 0-110.84l-58.73-20.06-27.88 22.98z"/></g><path d="M564.45 156.7a1.88 1.88 0 0 0 .5-.13 1.76 1.76 0 0 0 .567-.381 1.75 1.75 0 0 0 .377-.569c.088-.213.132-.441.131-.671a1.73 1.73 0 0 0-.135-.669c-2.48-5.95-6-9.58-10.58-10.79-7.37-2-14.39 3.35-14.69 3.58a1.75 1.75 0 0 0-.315 2.455 1.75 1.75 0 0 0 2.455.315c.11-.08 6-4.48 11.67-3 3.42.92 6.19 3.86 8.23 8.75.136.355.385.656.708.857a1.74 1.74 0 0 0 1.082.253z" class="B"/><path d="M487.8 148.82s-6.4-22.62 14.51-26.46 58.91-.43 58.91-.43-2.14 9 .43 11.52 9.81 2.57 9.81 8.11-.42 11.1 1.28 15.37 9 14.94 9 14.94 16.65-31.16 12.38-41-12.38-11.1-12.38-11.1 4.69-15.36-7.26-20.49-64.88 2.57-64.88 2.57-15.37-14.94-22.63-2.57-1.28 22.63-1.28 22.63-14.11 12.4 2.11 26.91z" class="F"/><g class="B"><path d="M518.5 149.92c.372-.034.723-.189 1-.44a1.75 1.75 0 0 0 .586-1.204c.029-.463-.128-.919-.436-1.266-4.29-4.82-8.83-7.1-13.51-6.76-7.61.52-12.53 7.84-12.73 8.15-.257.387-.35.861-.258 1.316s.361.857.748 1.114.861.35 1.316.258.857-.361 1.114-.748c.06-.09 4.18-6.18 10.07-6.6 3.54-.25 7.11 1.64 10.63 5.6a1.79 1.79 0 0 0 .668.461c.254.101.529.141.802.119zm19.33 95.19a61.78 61.78 0 0 0 24.93-8.65c.201-.123.375-.285.511-.477a1.75 1.75 0 0 0 .284-.639c.05-.23.055-.468.011-.7s-.133-.451-.264-.647a1.74 1.74 0 0 0-.496-.493 1.76 1.76 0 0 0-.65-.259 1.75 1.75 0 0 0-.699.016 1.76 1.76 0 0 0-.637.289c-.29.19-28.91 18.84-51.26-.37-22.73-19.53-16.34-109.14-16.27-110 .028-.459-.126-.911-.429-1.257a1.75 1.75 0 0 0-3.061.997c-.28 3.76-6.58 92.29 17.48 113 9.95 8.47 20.97 10.18 30.55 9.19z"/></g><path d="M539.09 169.31c-.151-.743-.135-1.511.046-2.247s.523-1.424 1.001-2.012a5.14 5.14 0 0 1 1.764-1.394 5.15 5.15 0 0 1 2.189-.507c5.48-.08 14.92.53 18.58 5.26 5.3 6.84-18.83 5.23-22.15 3.08a3.43 3.43 0 0 1-1.43-2.18z" class="D"/><path d="M549.58 173.5a5.07 5.07 0 0 0 0-10.14 5.07 5.07 0 0 0 0 10.14z" class="B"/><path d="M496.21 164.58c-.149-.743-.132-1.509.05-2.244s.524-1.421 1.001-2.009 1.08-1.062 1.762-1.39 1.43-.501 2.187-.507c5.48-.08 14.92.52 18.59 5.25 5.3 6.85-18.84 5.24-22.15 3.08a3.43 3.43 0 0 1-1.44-2.18z" class="D"/><g class="B"><path d="M505.29 168.78a5.07 5.07 0 1 0 0-10.14 5.07 5.07 0 1 0 0 10.14zm22.63 24.85c2.072-.326 4.062-1.049 5.86-2.13a1.77 1.77 0 0 0 .505-.462c.136-.186.234-.397.289-.621a1.75 1.75 0 0 0-.204-1.327c-.119-.197-.277-.368-.462-.505a1.74 1.74 0 0 0-.621-.289 1.75 1.75 0 0 0-1.327.204 12.63 12.63 0 0 1-4.4 1.64c-1.12.11-2-1.71-2-1.73a1.76 1.76 0 0 0-.929-.898c-.412-.171-.873-.179-1.291-.022-1 .39-3.36.9-4.56.27.08-2.69 5-13.61 9.74-22.66a1.75 1.75 0 0 0 .217-.663 1.76 1.76 0 0 0-.059-.696 1.75 1.75 0 0 0-.327-.617c-.149-.182-.333-.331-.541-.44a1.76 1.76 0 0 0-.671-.194 1.75 1.75 0 0 0-.693.084c-.223.075-.429.193-.605.349a1.73 1.73 0 0 0-.421.557c-12.49 23.79-10.23 25.81-9.27 26.68 2.07 1.85 5.19 1.48 7 1 .506.796 1.214 1.445 2.052 1.878s1.776.638 2.718.592zm1.21 13.36a27.37 27.37 0 0 0 14.06-6c.189-.138.348-.313.467-.514a1.78 1.78 0 0 0 .231-.656c.033-.232.017-.468-.043-.694a1.74 1.74 0 0 0-.31-.622c-.144-.185-.323-.338-.528-.453s-.429-.186-.662-.211a1.74 1.74 0 0 0-.692.063c-.224.067-.433.178-.613.327-12.14 9.45-22.19 3.65-22.62 3.4a1.75 1.75 0 0 0-2.4.6 1.76 1.76 0 0 0 .59 2.4c3.838 2.038 8.204 2.861 12.52 2.36z"/></g><path d="M578.23 167.7s11.58-12.58 18-2.75-.72 27.93-14.83 30.58l-3.17-27.83z" class="G"/><path d="M585.48 185.8c.313-.033.611-.149.864-.335a1.76 1.76 0 0 0 .576-.725c1.76-4.18-.94-7.38-3.43-9.07 3.09-5.46 9.33-4.54 9.61-4.5a1.75 1.75 0 0 0 1.26-.337c.361-.27.604-.67.677-1.115a1.75 1.75 0 0 0-1.367-1.998c-2.908-.482-5.894.049-8.457 1.505a12.86 12.86 0 0 0-5.623 6.495c-.163.416-.161.879.006 1.294s.488.75.894.936c.18.09 4.56 2.17 3.2 5.4a1.75 1.75 0 0 0-.125.887c.036.302.15.589.331.833a1.76 1.76 0 0 0 .699.56c.278.122.583.171.885.14v.03z" class="B"/><g fill="#fcfbff"><path d="M614.67 250.45l-16.02 56.57 18.85 3.77 14.15-49.03-16.98-11.31zm-115.97-.48l10.37 56.11 21.45-.24-14.85-62.46-16.97 6.59z"/></g><g class="C"><path d="M502.94 300.18l115.98 7.08 19.09 88.39-149.21-1.41 14.14-94.06zm-23.1-174.2s-3.3-25.93 9.9-30.64 41.49-1.89 56.57 8 11.79 27.36 11.79 27.36l-78.26-4.72z"/></g><path d="M594.4 144.61l-114.56-4.36v-16.27l114.56 4.36v16.27z" class="H"/><path d="M554.33 142.01s-66.71 22.63-81.56 11.67 7.42-23 7.42-23l74.14 11.33z" class="C"/><path d="M480.55 126.81c-.465.01-.919-.142-1.284-.43a2 2 0 0 1-.716-1.15c-.15-.7-3.63-17.2 4.21-27 3.65-4.57 9.07-6.92 16.11-7a2 2 0 0 1 2 2 2 2 0 0 1-2 2c-5.78 0-10.16 1.89-13 5.47-6.67 8.37-3.46 23.54-3.43 23.69a2 2 0 0 1-.009.898 1.99 1.99 0 0 1-.4.804 2 2 0 0 1-1.591.728l.11-.01z" class="B"/><path d="M488.8 394.24l2.83 57.99 150.62-1.42-4.95-58.69-148.5 2.12z" class="C"/><path d="M642.25 270.48s-10.6 19.8-11.31 51.63 6.36 70 6.36 70l62.24 2.12s-2.13-67.88-57.29-123.75z" class="H"/><path d="M639.66 389.52l-97.82 43.61s-67.54 2.12-70.72 11.67 4.24 12.38 13.43 12.38 47 5.3 54.81 3.18 9.55-4.24 9.55-4.24 150.15 4.59 154.4-7.66-8-60.35-8-60.35l-55.65 1.41z" class="G"/><g class="B"><path d="M471.47 453.17c-.395.001-.782-.116-1.111-.334s-.587-.531-.739-.896a3.45 3.45 0 0 1-.185-1.537 3.44 3.44 0 0 1 .505-1.463c1.7-3 7.42-5.27 17.49-6.85 18-2.82 27.15-2.85 27.53-2.85a2 2 0 1 1 0 4c-.09 0-9.29 0-26.91 2.8-12.22 1.92-14.3 4.35-14.6 4.82.061.437-.025.883-.244 1.266a2 2 0 0 1-.966.854 1.89 1.89 0 0 1-.77.19zm306.71 46.08H27.8a2 2 0 1 1 0-4h750.38a2 2 0 1 1 0 4z"/></g><path d="M253.73 405.17h-52a5.62 5.62 0 0 0-5.62 5.62v43.65a5.62 5.62 0 0 0 5.62 5.62h52a5.62 5.62 0 0 0 5.62-5.62v-43.65a5.62 5.62 0 0 0-5.62-5.62z" class="I"/><path d="M313.78 405.17h-57.69a5.62 5.62 0 0 0-5.62 5.62v43.65a5.62 5.62 0 0 0 5.62 5.62h57.69a5.62 5.62 0 0 0 5.62-5.62v-43.65a5.62 5.62 0 0 0-5.62-5.62z" class="F"/><path d="M266.6 405.39s.62-33.23-12.13-29c-27.11 8.93-22.33 28.07-22.33 28.07l34.46.93z" fill="#a3a5a0"/><path d="M257.33 375.7h-65.7s-19.15 18.19-22 43.71-1.91 67.95-1.91 67.95h61.25v-66s-.97-32.56 28.36-45.66z" class="D"/><g class="F"><path d="M213.93 440.15h-34.98v3.32h34.98v-3.32zm0 9.19h-34.98v3.32h34.98v-3.32zm0 9.19h-34.98v3.32h34.98v-3.32zm0 9.19h-34.98v3.32h34.98v-3.32z"/></g><path d="M321.33 411.81h138.35a11.78 11.78 0 0 0 5.403-1.31 11.79 11.79 0 0 0 6.263-8.806c.265-1.861.081-3.758-.536-5.534l-29.48-84.65a10.34 10.34 0 0 0-3.773-5.027c-1.749-1.243-3.841-1.912-5.987-1.913H290.13c-1.65.001-3.275.396-4.741 1.153a10.34 10.34 0 0 0-5.491 7.731 10.35 10.35 0 0 0 .472 4.856l29.84 85.6a11.78 11.78 0 0 0 11.12 7.9z" class="I"/><g class="F"><path d="M317.27 412.63h138.35a11.77 11.77 0 0 0 5.403-1.314 11.78 11.78 0 0 0 4.199-3.646c1.089-1.533 1.794-3.304 2.059-5.165s.078-3.76-.541-5.535l-29.5-84.65c-.704-2.026-2.021-3.782-3.768-5.026s-3.838-1.912-5.982-1.914H286.07c-1.65.001-3.275.396-4.741 1.153a10.35 10.35 0 0 0-3.684 3.199 10.34 10.34 0 0 0-1.807 4.532 10.35 10.35 0 0 0 .472 4.856l29.83 85.6a11.79 11.79 0 0 0 11.13 7.91z"/><path d="M415.83 406.94h-41.71v37.37h41.71v-37.37z"/></g><path d="M400.12 406.94h-41.71v37.37h41.71v-37.37z" fill="#2b2928"/><path d="M465.93 439.84H358.28v18.69h107.65v-18.69z" class="F"/><path d="M399.71 439.84H320.5v18.69h79.21v-18.69z" class="I"/><path d="M270.927 170.071l-86.1-55.872c-4.865-3.156-11.367-1.772-14.524 3.093l-35.192 54.232c-3.157 4.865-1.772 11.367 3.092 14.524l86.101 55.871a10.5 10.5 0 0 0 14.524-3.092l35.192-54.232c3.156-4.865 1.772-11.367-3.093-14.524z" fill="#5e0782"/><path d="M268.844 163.779l-86.101-55.872c-4.865-3.157-11.367-1.772-14.524 3.092l-35.192 54.233a10.5 10.5 0 0 0 3.093 14.523l86.1 55.872c4.865 3.157 11.367 1.772 14.524-3.092l35.192-54.233a10.5 10.5 0 0 0-3.092-14.523z" class="H"/><g class="C"><path d="M185.34 151.26c5.434 0 9.84-4.406 9.84-9.84s-4.406-9.84-9.84-9.84-9.84 4.406-9.84 9.84 4.406 9.84 9.84 9.84zm3.739 21.693c3.235-4.985-1.741-13.957-11.113-20.039s-19.593-6.971-22.827-1.986 1.74 13.957 11.113 20.039 19.592 6.971 22.827 1.986z"/></g><g class="D"><path d="M253.338 178.414l-40.559-26.319-2.504 3.858 40.559 26.32 2.504-3.859z"/><path d="M250.838 180.931l-40.614-26.109-2.484 3.864 40.614 26.109 2.484-3.864zm-8.788 14.87l-40.559-26.319-2.504 3.859 40.559 26.319 2.504-3.859z"/></g><path d="M246.77 73.38c18.645 0 33.76-15.115 33.76-33.76S265.415 5.86 246.77 5.86s-33.76 15.115-33.76 33.76 15.115 33.76 33.76 33.76z" class="E"/><path d="M246.45 67.52c18.645 0 33.76-15.115 33.76-33.76S265.095 0 246.45 0s-33.76 15.115-33.76 33.76 15.115 33.76 33.76 33.76z" class="C"/><path d="M254.69 35.3a9.59 9.59 0 0 1 1.85 4.13 7.55 7.55 0 0 1-.89 4.82c-.709 1.475-1.745 2.77-3.029 3.785a10.78 10.78 0 0 1-4.381 2.075c-3.333.787-7.077.34-11.23-1.34l-3.69 4.66-4.73-2.42 3.7-4.66a31.09 31.09 0 0 1-5.49-4.45c-1.407-1.388-2.588-2.987-3.5-4.74l6.15-4.23a21.16 21.16 0 0 0 3 4.38c1.227 1.36 2.633 2.548 4.18 3.53l5.7-7.14c-1.367-1.295-2.634-2.693-3.79-4.18a9.75 9.75 0 0 1-1.86-4.28 7.92 7.92 0 0 1 .94-5c.965-1.98 2.51-3.619 4.43-4.7a12.57 12.57 0 0 1 6.57-1.5 21.54 21.54 0 0 1 7.85 1.85l3.69-4.66 4.72 2.41-3.72 4.71a22.52 22.52 0 0 1 7.31 7.14l-5.87 4.38a17.78 17.78 0 0 0-5.78-6.06l-5.91 7.46c1.362 1.244 2.626 2.591 3.78 4.03zm-9.06-10.06a7.68 7.68 0 0 0 1.5 2.38l4.84-6.1a6.88 6.88 0 0 0-3.8-.19 3.7 3.7 0 0 0-1.378.645c-.41.308-.751.698-1.002 1.145-.173.323-.277.678-.305 1.043a2.63 2.63 0 0 0 .145 1.077zm-.47 18.08c.473-.118.915-.337 1.296-.64a3.41 3.41 0 0 0 .914-1.12c.61-1.19.19-2.6-1.28-4.23l-4.59 5.81a6.66 6.66 0 0 0 3.66.18z" class="E"/><path d="M253.51 33.59c.924 1.206 1.547 2.615 1.82 4.11a7.55 7.55 0 0 1-.89 4.82c-.709 1.475-1.745 2.77-3.029 3.785a10.78 10.78 0 0 1-4.381 2.075c-3.333.793-7.077.347-11.23-1.34l-3.69 4.66-4.72-2.42 3.69-4.66a31.09 31.09 0 0 1-5.49-4.45c-1.407-1.388-2.588-2.987-3.5-4.74l6.16-4.23c.808 1.582 1.817 3.054 3 4.38a20.48 20.48 0 0 0 4.18 3.53l5.69-7.15a37.26 37.26 0 0 1-3.79-4.18 9.75 9.75 0 0 1-1.86-4.28 7.92 7.92 0 0 1 .94-5c.965-1.98 2.51-3.619 4.43-4.7a12.47 12.47 0 0 1 6.57-1.49 21.32 21.32 0 0 1 7.85 1.84l3.69-4.66 4.72 2.41-3.72 4.71a22.52 22.52 0 0 1 7.38 7.09l-5.87 4.38a17.78 17.78 0 0 0-5.78-6.06l-5.91 7.46a34.85 34.85 0 0 1 3.74 4.11zm-9.06-10.06a7.66 7.66 0 0 0 1.5 2.38l4.85-6.1a6.92 6.92 0 0 0-3.81-.19 3.7 3.7 0 0 0-1.378.645c-.41.308-.751.698-1.002 1.145-.173.323-.277.678-.305 1.043a2.63 2.63 0 0 0 .145 1.077zm-.47 18.08a3.39 3.39 0 0 0 1.297-.639c.381-.304.693-.686.913-1.121.62-1.187.193-2.597-1.28-4.23l-4.59 5.81a6.66 6.66 0 0 0 3.66.18z" class="J"/><use xlink:href="#B" class="E"/><path d="M341.98 170.35c18.645 0 33.76-15.115 33.76-33.76s-15.115-33.76-33.76-33.76-33.76 15.115-33.76 33.76 15.115 33.76 33.76 33.76z" class="C"/><path d="M347.15 129.99c1.506-.272 3.056-.18 4.52.27a7.48 7.48 0 0 1 3.86 3 10.76 10.76 0 0 1 1.959 4.435 10.75 10.75 0 0 1-.189 4.845c-.84 3.333-2.967 6.447-6.38 9.34l2.43 5.43-4.33 3.07-2.42-5.43a30.66 30.66 0 0 1-6.49 2.81c-1.881.604-3.844.914-5.82.92l-.91-7.42a20.49 20.49 0 0 0 10.35-2.73l-3.71-8.35c-1.783.607-3.608 1.085-5.46 1.43a9.8 9.8 0 0 1-4.65-.34c-1.644-.581-3.05-1.688-4-3.15-1.307-1.776-2.046-3.906-2.12-6.11-.035-2.285.557-4.537 1.71-6.51a21.5 21.5 0 0 1 5.26-6.11l-2.42-5.43 4.32-3.07 2.46 5.47c2.948-1.787 6.266-2.875 9.7-3.18l1.17 7.24c-2.813.129-5.555.924-8 2.32l3.89 8.69c1.717-.616 3.478-1.098 5.27-1.44zm-13.11 3.38c.939.105 1.89.027 2.8-.23l-3.16-7.12c-.936.897-1.604 2.036-1.93 3.29a3.7 3.7 0 0 0-.065 1.522 3.68 3.68 0 0 0 .555 1.418c.205.302.471.558.781.751a2.6 2.6 0 0 0 1.019.369zm15.82 8.77c.114-.473.125-.966.032-1.444s-.288-.93-.572-1.326c-.767-1.1-2.217-1.373-4.35-.82l3 6.76a6.64 6.64 0 0 0 1.89-3.17z" class="E"/><path d="M345.09 130.24a9.46 9.46 0 0 1 4.52.28 7.42 7.42 0 0 1 3.86 3c.983 1.31 1.653 2.827 1.96 4.435s.242 3.266-.19 4.845c-.84 3.333-2.967 6.443-6.38 9.33l2.43 5.44-4.33 3.06-2.42-5.43a31.47 31.47 0 0 1-6.49 2.82c-1.88.606-3.844.913-5.82.91l-.91-7.42a20.13 20.13 0 0 0 5.29-.66 20.4 20.4 0 0 0 5.06-2.07l-3.71-8.35c-1.78.617-3.606 1.095-5.46 1.43a9.73 9.73 0 0 1-4.66-.33c-1.647-.58-3.055-1.692-4-3.16-1.307-1.772-2.046-3.899-2.12-6.1a12.47 12.47 0 0 1 1.71-6.52 21.46 21.46 0 0 1 5.26-6.1l-2.42-5.44 4.32-3.07 2.46 5.48c2.948-1.787 6.266-2.875 9.7-3.18l1.17 7.23c-2.814.13-5.557.928-8 2.33l3.89 8.68c1.721-.612 3.486-1.093 5.28-1.44zm-13.11 3.39a7.73 7.73 0 0 0 2.8-.23l-3.16-7.12c-.934.894-1.602 2.029-1.93 3.28-.128.497-.15 1.016-.066 1.522a3.68 3.68 0 0 0 .556 1.418c.204.304.47.561.78.756a2.63 2.63 0 0 0 1.02.374zm15.82 8.77a3.42 3.42 0 0 0 .031-1.449c-.093-.479-.288-.933-.571-1.331-.78-1.093-2.23-1.363-4.35-.81l3 6.75a6.7 6.7 0 0 0 1.89-3.16z" class="J"/><path d="M95.32 126.04c18.645 0 33.76-15.115 33.76-33.76s-15.115-33.76-33.76-33.76-33.76 15.115-33.76 33.76 15.115 33.76 33.76 33.76z" class="E"/><path d="M89.98 123.62c18.645 0 33.76-15.115 33.76-33.76S108.625 56.1 89.98 56.1 56.22 71.215 56.22 89.86s15.115 33.76 33.76 33.76z" class="C"/><path d="M95.15 83.26a9.46 9.46 0 0 1 4.52.28c1.588.535 2.949 1.593 3.86 3a10.74 10.74 0 0 1 1.96 4.435c.307 1.608.242 3.266-.19 4.845-.84 3.333-2.967 6.447-6.38 9.34l2.43 5.43-4.33 3.07-2.42-5.44c-2.05 1.183-4.227 2.129-6.49 2.82a18.88 18.88 0 0 1-5.82.91l-.91-7.42a20.13 20.13 0 0 0 5.29-.66c1.772-.46 3.474-1.156 5.06-2.07l-3.71-8.35c-1.78.617-3.606 1.095-5.46 1.43a9.67 9.67 0 0 1-4.65-.33 7.89 7.89 0 0 1-4-3.16 10.9 10.9 0 0 1-2.12-6.1 12.57 12.57 0 0 1 1.71-6.52 21.46 21.46 0 0 1 5.26-6.1l-2.42-5.44 4.32-3.06 2.46 5.47a22.56 22.56 0 0 1 9.7-3.18l1.17 7.23a17.79 17.79 0 0 0-8 2.33l3.89 8.68c1.718-.612 3.48-1.093 5.27-1.44zM82.04 86.7a7.51 7.51 0 0 0 2.8-.23l-3.16-7.12a7 7 0 0 0-1.93 3.29 3.66 3.66 0 0 0 .49 2.93 2.62 2.62 0 0 0 1.8 1.13zm15.82 8.77a3.38 3.38 0 0 0-.53-2.77c-.767-1.1-2.217-1.373-4.35-.82l3 6.75a6.57 6.57 0 0 0 1.88-3.21v.05z" class="E"/><path d="M93.09 83.52a9.59 9.59 0 0 1 4.52.27 7.45 7.45 0 0 1 3.86 3 10.72 10.72 0 0 1 1.96 4.43c.307 1.607.242 3.263-.19 4.84-.84 3.333-2.967 6.447-6.38 9.34l2.43 5.43-4.33 3.07-2.42-5.43c-2.049 1.182-4.226 2.125-6.49 2.81-1.88.609-3.844.919-5.82.92l-.91-7.42a20.13 20.13 0 0 0 5.29-.66c1.772-.46 3.474-1.156 5.06-2.07l-3.71-8.35a37.79 37.79 0 0 1-5.46 1.43 9.85 9.85 0 0 1-4.66-.34 7.89 7.89 0 0 1-4-3.15 10.93 10.93 0 0 1-2.12-6.11 12.46 12.46 0 0 1 1.71-6.51 21.49 21.49 0 0 1 5.26-6.11l-2.42-5.43 4.32-3.07 2.46 5.48a22.3 22.3 0 0 1 9.7-3.18l1.17 7.23a17.71 17.71 0 0 0-8 2.32l3.89 8.69a35.13 35.13 0 0 1 5.28-1.43zM79.98 86.9a7.3 7.3 0 0 0 2.8-.23l-3.16-7.11a7 7 0 0 0-1.93 3.28 3.69 3.69 0 0 0 .49 2.94 2.61 2.61 0 0 0 1.8 1.12zm15.82 8.77a3.39 3.39 0 0 0-.54-2.77c-.78-1.09-2.23-1.37-4.35-.81l3 6.75a6.68 6.68 0 0 0 1.89-3.14v-.03z" class="J"/><g class="D"><path d="M145.24 70.87a18.64 18.64 0 0 0-18.63-18.64 18.63 18.63 0 0 0 13.177-5.46 18.64 18.64 0 0 0 4.038-6.047 18.65 18.65 0 0 0 1.415-7.132 18.64 18.64 0 0 0 18.64 18.639 18.65 18.65 0 0 0-18.64 18.64zm157.28 146.55a18.63 18.63 0 0 0-5.46-13.177c-1.731-1.73-3.786-3.102-6.048-4.038a18.63 18.63 0 0 0-7.132-1.415c4.944 0 9.685-1.964 13.18-5.46a18.64 18.64 0 0 0 5.46-13.18c.003 4.943 1.967 9.682 5.462 13.178a18.65 18.65 0 0 0 13.178 5.462c-4.942 0-9.682 1.962-13.177 5.456s-5.46 8.232-5.463 13.174zm4.6-136.34a18.65 18.65 0 0 0-18.64-18.64 18.64 18.64 0 0 0 13.177-5.456c3.495-3.494 5.46-8.232 5.463-13.174a18.63 18.63 0 0 0 5.46 13.177 18.64 18.64 0 0 0 6.047 4.038 18.63 18.63 0 0 0 7.133 1.415 18.64 18.64 0 0 0-13.181 5.46c-3.495 3.496-5.459 8.237-5.459 13.18z"/></g></g><defs><clipPath id="A"><path d="M0 0h780.73v780.15H0z" class="D"/></clipPath><path id="B" d="M347.32 172.77c18.645 0 33.76-15.115 33.76-33.76s-15.115-33.76-33.76-33.76-33.76 15.115-33.76 33.76 15.115 33.76 33.76 33.76z"/></defs></svg>